<mxfile host="app.diagrams.net" modified="2022-05-23T15:11:49.971Z" agent="5.0 (Windows NT 10.0; Win64; x64) AppleWebKit/537.36 (KHTML, like Gecko) Chrome/101.0.0.0 Safari/537.36" etag="BRWu2cSFC-8KwyV102my" version="17.4.3" type="github">
  <diagram id="gYrTklebKQfbuqfcUWn6" name="Page-1">
    <mxGraphModel dx="1422" dy="914" grid="1" gridSize="10" guides="1" tooltips="1" connect="1" arrows="1" fold="1" page="1" pageScale="1" pageWidth="850" pageHeight="1100" math="0" shadow="0">
      <root>
        <mxCell id="0" />
        <mxCell id="1" parent="0" />
        <mxCell id="eOF6dtczo_mDms-erQZI-1" value="" style="rounded=0;whiteSpace=wrap;html=1;" vertex="1" parent="1">
          <mxGeometry x="120" y="320" width="220" height="420" as="geometry" />
        </mxCell>
        <mxCell id="eOF6dtczo_mDms-erQZI-3" value="bucket to share" style="sketch=0;points=[[0,0,0],[0.25,0,0],[0.5,0,0],[0.75,0,0],[1,0,0],[0,1,0],[0.25,1,0],[0.5,1,0],[0.75,1,0],[1,1,0],[0,0.25,0],[0,0.5,0],[0,0.75,0],[1,0.25,0],[1,0.5,0],[1,0.75,0]];outlineConnect=0;fontColor=#232F3E;gradientColor=#60A337;gradientDirection=north;fillColor=#277116;strokeColor=#ffffff;dashed=0;verticalLabelPosition=bottom;verticalAlign=top;align=center;html=1;fontSize=12;fontStyle=0;aspect=fixed;shape=mxgraph.aws4.resourceIcon;resIcon=mxgraph.aws4.s3;" vertex="1" parent="1">
          <mxGeometry x="191" y="620" width="78" height="78" as="geometry" />
        </mxCell>
        <mxCell id="eOF6dtczo_mDms-erQZI-5" style="edgeStyle=orthogonalEdgeStyle;rounded=0;orthogonalLoop=1;jettySize=auto;html=1;" edge="1" parent="1" source="eOF6dtczo_mDms-erQZI-4" target="eOF6dtczo_mDms-erQZI-3">
          <mxGeometry relative="1" as="geometry" />
        </mxCell>
        <mxCell id="eOF6dtczo_mDms-erQZI-6" value="defines permissions on S3" style="edgeLabel;html=1;align=center;verticalAlign=middle;resizable=0;points=[];" vertex="1" connectable="0" parent="eOF6dtczo_mDms-erQZI-5">
          <mxGeometry x="0.2245" y="5" relative="1" as="geometry">
            <mxPoint as="offset" />
          </mxGeometry>
        </mxCell>
        <mxCell id="eOF6dtczo_mDms-erQZI-4" value="IAM Role" style="sketch=0;outlineConnect=0;fontColor=#232F3E;gradientColor=none;fillColor=#BF0816;strokeColor=none;dashed=0;verticalLabelPosition=bottom;verticalAlign=top;align=center;html=1;fontSize=12;fontStyle=0;aspect=fixed;pointerEvents=1;shape=mxgraph.aws4.role;" vertex="1" parent="1">
          <mxGeometry x="191" y="380" width="78" height="44" as="geometry" />
        </mxCell>
        <mxCell id="eOF6dtczo_mDms-erQZI-7" value="" style="rounded=0;whiteSpace=wrap;html=1;" vertex="1" parent="1">
          <mxGeometry x="490" y="320" width="220" height="420" as="geometry" />
        </mxCell>
        <mxCell id="eOF6dtczo_mDms-erQZI-8" value="" style="endArrow=classic;html=1;rounded=0;exitX=0.045;exitY=0.195;exitDx=0;exitDy=0;exitPerimeter=0;" edge="1" parent="1" source="eOF6dtczo_mDms-erQZI-7" target="eOF6dtczo_mDms-erQZI-4">
          <mxGeometry width="50" height="50" relative="1" as="geometry">
            <mxPoint x="400" y="490" as="sourcePoint" />
            <mxPoint x="450" y="440" as="targetPoint" />
          </mxGeometry>
        </mxCell>
        <mxCell id="eOF6dtczo_mDms-erQZI-9" value="assume Role" style="edgeLabel;html=1;align=center;verticalAlign=middle;resizable=0;points=[];" vertex="1" connectable="0" parent="eOF6dtczo_mDms-erQZI-8">
          <mxGeometry x="-0.4311" y="3" relative="1" as="geometry">
            <mxPoint as="offset" />
          </mxGeometry>
        </mxCell>
        <mxCell id="eOF6dtczo_mDms-erQZI-10" value="Account 1" style="text;html=1;strokeColor=none;fillColor=none;align=center;verticalAlign=middle;whiteSpace=wrap;rounded=0;" vertex="1" parent="1">
          <mxGeometry x="191" y="320" width="60" height="30" as="geometry" />
        </mxCell>
        <mxCell id="eOF6dtczo_mDms-erQZI-12" value="Account 2" style="text;html=1;strokeColor=none;fillColor=none;align=center;verticalAlign=middle;whiteSpace=wrap;rounded=0;" vertex="1" parent="1">
          <mxGeometry x="570" y="320" width="60" height="30" as="geometry" />
        </mxCell>
      </root>
    </mxGraphModel>
  </diagram>
</mxfile>
